<svg width="1929" height="1413" viewBox="0 0 1929 1413" fill="none" xmlns="http://www.w3.org/2000/svg">
<path fill-rule="evenodd" clip-rule="evenodd" d="M858.642 611.853C858.642 748.411 747.938 859.116 611.379 859.116C474.82 859.116 364.116 748.411 364.116 611.853C364.116 475.294 474.82 364.59 611.379 364.59C747.938 364.59 858.642 475.294 858.642 611.853Z" fill="#FAD87A"/>
<path fill-rule="evenodd" clip-rule="evenodd" d="M611.379 270.647C595.007 270.647 581.733 257.373 581.733 241.011V30.1202C581.733 13.7583 595.007 0.484375 611.379 0.484375C627.75 0.484375 641.015 13.7583 641.015 30.1202V241.011C641.015 257.373 627.75 270.647 611.379 270.647Z" fill="#FAD87A"/>
<path fill-rule="evenodd" clip-rule="evenodd" d="M611.379 1223.22C595.007 1223.22 581.733 1209.96 581.733 1193.59V982.705C581.733 966.324 595.007 953.06 611.379 953.06C627.75 953.06 641.015 966.324 641.015 982.705V1193.59C641.015 1209.96 627.75 1223.22 611.379 1223.22Z" fill="#FAD87A"/>
<path fill-rule="evenodd" clip-rule="evenodd" d="M852.647 370.586C841.074 359.003 841.074 340.237 852.647 328.664L1001.77 179.544C1013.34 167.971 1032.11 167.971 1043.68 179.544C1055.26 191.127 1055.26 209.893 1043.68 221.466L894.568 370.586C882.995 382.159 864.22 382.159 852.647 370.586Z" fill="#FAD87A"/>
<path fill-rule="evenodd" clip-rule="evenodd" d="M179.07 1044.15C167.497 1032.59 167.497 1013.81 179.07 1002.24L328.19 853.121C339.763 841.548 358.529 841.548 370.111 853.121C381.684 864.704 381.684 883.47 370.111 895.043L220.991 1044.15C209.418 1055.74 190.643 1055.74 179.07 1044.15Z" fill="#FAD87A"/>
<path fill-rule="evenodd" clip-rule="evenodd" d="M952.585 611.853C952.585 595.482 965.85 582.217 982.221 582.217H1193.11C1209.47 582.217 1222.75 595.482 1222.75 611.853C1222.75 628.225 1209.47 641.489 1193.11 641.489H982.221C965.85 641.489 952.585 628.225 952.585 611.853Z" fill="#FAD87A"/>
<path fill-rule="evenodd" clip-rule="evenodd" d="M0.000488281 611.853C0.000488281 595.482 13.2744 582.217 29.6458 582.217H240.527C256.898 582.217 270.172 595.482 270.172 611.853C270.172 628.225 256.898 641.489 240.527 641.489H29.6458C13.2744 641.489 0.000488281 628.225 0.000488281 611.853Z" fill="#FAD87A"/>
<path fill-rule="evenodd" clip-rule="evenodd" d="M852.647 853.121C864.22 841.548 882.995 841.548 894.568 853.121L1043.68 1002.24C1055.26 1013.81 1055.26 1032.59 1043.68 1044.15C1032.11 1055.74 1013.34 1055.74 1001.77 1044.15L852.647 895.043C841.074 883.47 841.074 864.704 852.647 853.121Z" fill="#FAD87A"/>
<path fill-rule="evenodd" clip-rule="evenodd" d="M179.07 179.544C190.643 167.971 209.418 167.971 220.991 179.544L370.111 328.664C381.684 340.237 381.684 359.003 370.111 370.586C358.529 382.159 339.763 382.159 328.19 370.586L179.07 221.466C167.497 209.893 167.497 191.127 179.07 179.544Z" fill="#FAD87A"/>
<path fill-rule="evenodd" clip-rule="evenodd" d="M1744.33 1044.05C1743.54 1044.05 1742.81 1044.28 1742.01 1044.29C1756.66 1010.39 1764.87 973.061 1764.87 933.79C1764.87 779.787 1640.03 654.953 1486.04 654.953C1431.61 654.953 1380.99 670.783 1338.08 697.749C1280.02 556.648 1141.34 457.222 979.285 457.222C765.022 457.222 591.33 630.923 591.33 845.187C591.33 861.387 592.641 877.246 594.561 892.924C593.478 892.905 592.423 892.762 591.33 892.762C447.664 892.762 331.202 1009.22 331.202 1152.88C331.202 1296.54 447.664 1413 591.33 1413H1744.33C1846.22 1413 1928.81 1330.41 1928.81 1228.52C1928.81 1126.65 1846.22 1044.05 1744.33 1044.05Z" fill="#FFFFFE"/>
</svg>
